<svg fill="none" viewBox="0 0 190 93"><path fill="currentColor" d="m86.595 52.42-.864 1.804.864-1.804Zm16.238 0 .865 1.804-.865-1.804ZM16.263 4h156.902V0H16.264v4Zm169.165 7.875v69.124h4V11.875h-4Zm-12.263 76.999H16.264v4h156.901v-4ZM4 80.999V11.875H0v69.124h4Zm12.264 7.875c-3.584 0-6.741-1.01-8.948-2.537C5.102 84.804 4 82.884 4 81H0c0 3.569 2.091 6.586 5.04 8.627 2.955 2.046 6.93 3.248 11.224 3.248v-4Zm169.164-7.875c0 1.885-1.101 3.805-3.316 5.338-2.207 1.528-5.364 2.537-8.947 2.537v4c4.294 0 8.268-1.202 11.224-3.248 2.948-2.04 5.039-5.058 5.039-8.627h-4ZM173.165 4c3.583 0 6.74 1.009 8.947 2.537 2.215 1.533 3.316 3.453 3.316 5.338h4c0-3.569-2.091-6.586-5.039-8.627C181.433 1.202 177.459 0 173.165 0v4ZM16.264 0C11.97 0 7.995 1.202 5.039 3.248 2.092 5.288 0 8.306 0 11.875h4C4 9.99 5.102 8.07 7.316 6.537 9.523 5.009 12.68 4 16.264 4V0ZM1.136 13.678 85.73 54.224l1.729-3.607L2.864 10.07l-1.728 3.607Zm102.562 40.546 84.595-40.546-1.729-3.607-84.595 40.546 1.729 3.607Zm-17.967 0c5.43 2.603 12.536 2.603 17.967 0l-1.729-3.607c-4.338 2.079-10.171 2.079-14.51 0l-1.728 3.607Z"/></svg>