<svg viewBox="0 0 11 10" fill="none" xmlns="http://www.w3.org/2000/svg">
<path d="M0.575195 2.42212H10.3252C10.5127 2.42212 10.7002 2.25806 10.7002 2.04712V1.10962C10.7002 0.922119 10.5127 0.734619 10.3252 0.734619H0.575195C0.364258 0.734619 0.200195 0.922119 0.200195 1.10962V2.04712C0.200195 2.25806 0.364258 2.42212 0.575195 2.42212ZM0.575195 6.17212H10.3252C10.5127 6.17212 10.7002 6.00806 10.7002 5.79712V4.85962C10.7002 4.67212 10.5127 4.48462 10.3252 4.48462H0.575195C0.364258 4.48462 0.200195 4.67212 0.200195 4.85962V5.79712C0.200195 6.00806 0.364258 6.17212 0.575195 6.17212ZM0.575195 9.92212H10.3252C10.5127 9.92212 10.7002 9.75806 10.7002 9.54712V8.60962C10.7002 8.42212 10.5127 8.23462 10.3252 8.23462H0.575195C0.364258 8.23462 0.200195 8.42212 0.200195 8.60962V9.54712C0.200195 9.75806 0.364258 9.92212 0.575195 9.92212Z" fill="currentColor"/>
</svg>
