<svg fill="none" viewBox="0 0 25 19"><path fill="currentColor" d="M4.106 18.112c-.64 0-1.237-.085-1.792-.256-.512-.17-1.067-.533-1.664-1.088a8.125 8.125 0 0 1-.32-2.304c0-2.773.896-5.376 2.688-7.808C4.81 4.181 7.221 1.963 10.25 0l1.28 1.856c-1.45 1.152-2.688 2.219-3.712 3.2-.981.981-1.963 2.219-2.944 3.712l1.152 1.6c.47.683.853 1.323 1.152 1.92.299.555.448 1.11.448 1.664 0 1.408-.363 2.453-1.088 3.136-.683.683-1.493 1.024-2.432 1.024Zm12.8 0c-.64 0-1.237-.085-1.792-.256-.512-.17-1.067-.533-1.664-1.088a8.123 8.123 0 0 1-.32-2.304c0-2.773.896-5.376 2.688-7.808C17.61 4.181 20.021 1.963 23.05 0l1.28 1.856c-1.45 1.152-2.688 2.219-3.712 3.2-.981.981-1.963 2.219-2.944 3.712l1.152 1.6a16.3 16.3 0 0 1 1.152 1.92c.299.555.448 1.11.448 1.664 0 1.408-.363 2.453-1.088 3.136-.683.683-1.493 1.024-2.432 1.024Z"/></svg>