<svg viewBox="0 0 12 12"><path fill="currentColor" d="M11.854.036a.25.25 0 0 0-.272.053l-1.521 1.505A5.937 5.937 0 0 0 6 0 6 6 0 0 0 .5 3.6a1 1 0 0 0 .516 1.316.978.978 0 0 0 .4.084 1 1 0 0 0 .917-.6A4 4 0 0 1 6 2a3.954 3.954 0 0 1 2.636 1L6.941 4.681a.251.251 0 0 0-.06.259.248.248 0 0 0 .209.166l4.64.514h.028a.248.248 0 0 0 .25-.25V.267a.251.251 0 0 0-.154-.231ZM.146 11.964a.229.229 0 0 0 .1.019.251.251 0 0 0 .176-.072l1.521-1.5A5.937 5.937 0 0 0 6 12a6 6 0 0 0 5.5-3.6 1 1 0 0 0-1.833-.8A4 4 0 0 1 6 10a3.954 3.954 0 0 1-2.636-1l1.7-1.677a.251.251 0 0 0 .06-.259.248.248 0 0 0-.209-.166L.27 6.38a.27.27 0 0 0-.195.061.252.252 0 0 0-.083.187v5.105a.251.251 0 0 0 .154.231Z"/></svg>