<svg fill="none" viewBox="0 0 19 18"><path fill="currentColor" d="M16.38 17.712a1 1 0 1 0 1.405-1.424l-1.405 1.424Zm-4.962-7.71a1 1 0 1 0-1.405 1.424l1.405-1.423Zm.012-3.288a4.714 4.714 0 0 1-4.715 4.715v2a6.714 6.714 0 0 0 6.715-6.715h-2ZM6.715 11.43a4.714 4.714 0 0 1-4.714-4.715h-2a6.714 6.714 0 0 0 6.714 6.715v-2ZM2.001 6.714A4.714 4.714 0 0 1 6.715 2V0A6.714 6.714 0 0 0 .001 6.714h2ZM6.715 2a4.714 4.714 0 0 1 4.715 4.714h2A6.714 6.714 0 0 0 6.715 0v2Zm11.07 14.288-6.367-6.285-1.405 1.423 6.367 6.286 1.405-1.424Z"/></svg>